<svg width="1312" height="259" viewBox="0 0 1312 259" fill="none" xmlns="http://www.w3.org/2000/svg">
<g clip-path="url(#clip0_39_314)">
<rect width="1312" height="259" rx="6" fill="white"/>
<g opacity="0.1">
<rect x="-6.51483" y="-12.75" width="59.1752" height="56.8056" stroke="#111111" stroke-opacity="0.5" stroke-width="0.5"/>
<rect x="52.7627" y="-12.75" width="59.1752" height="56.8056" stroke="#111111" stroke-opacity="0.5" stroke-width="0.5"/>
<rect x="112.04" y="-12.75" width="59.1752" height="56.8056" stroke="#111111" stroke-opacity="0.5" stroke-width="0.5"/>
<rect x="171.25" y="1.25" width="59.5" height="42.5" stroke="#111111" stroke-opacity="0.5" stroke-width="0.5"/>
<rect x="230.594" y="-12.75" width="59.1752" height="56.8056" stroke="#111111" stroke-opacity="0.5" stroke-width="0.5"/>
<rect x="289.872" y="-12.75" width="59.1752" height="56.8056" stroke="#111111" stroke-opacity="0.5" stroke-width="0.5"/>
<rect x="349.149" y="-12.75" width="59.1752" height="56.8056" stroke="#111111" stroke-opacity="0.5" stroke-width="0.5"/>
<rect x="408.426" y="-12.75" width="59.1752" height="56.8056" stroke="#111111" stroke-opacity="0.5" stroke-width="0.5"/>
<rect x="467.25" y="1.25" width="59.5" height="42.5" stroke="#111111" stroke-opacity="0.5" stroke-width="0.5"/>
<rect x="526.981" y="-12.75" width="59.1752" height="56.8056" stroke="#111111" stroke-opacity="0.5" stroke-width="0.5"/>
<rect x="586.258" y="-12.75" width="59.1752" height="56.8056" stroke="#111111" stroke-opacity="0.5" stroke-width="0.5"/>
<rect x="645.536" y="-12.75" width="59.1752" height="56.8056" stroke="#111111" stroke-opacity="0.5" stroke-width="0.5"/>
<rect x="704.813" y="-12.75" width="59.1752" height="56.8056" stroke="#111111" stroke-opacity="0.5" stroke-width="0.5"/>
<rect x="1.25006" y="44.25" width="51.5" height="56.5" stroke="#111111" stroke-opacity="0.5" stroke-width="0.5"/>
<rect x="52.7627" y="44.1736" width="59.1752" height="56.8056" stroke="#111111" stroke-opacity="0.5" stroke-width="0.5"/>
<rect x="112.04" y="44.1736" width="59.1752" height="56.8056" stroke="#111111" stroke-opacity="0.5" stroke-width="0.5"/>
<rect x="171.317" y="44.1736" width="59.1752" height="56.8056" stroke="#111111" stroke-opacity="0.5" stroke-width="0.5"/>
<rect x="230.594" y="44.1736" width="59.1752" height="56.8056" stroke="#111111" stroke-opacity="0.5" stroke-width="0.5"/>
<rect x="289.872" y="44.1736" width="59.1752" height="56.8056" stroke="#111111" stroke-opacity="0.5" stroke-width="0.5"/>
<rect x="349.149" y="44.1736" width="59.1752" height="56.8056" stroke="#111111" stroke-opacity="0.5" stroke-width="0.5"/>
<rect x="408.426" y="44.1736" width="59.1752" height="56.8056" stroke="#111111" stroke-opacity="0.5" stroke-width="0.5"/>
<rect x="467.704" y="44.1736" width="59.1752" height="56.8056" stroke="#111111" stroke-opacity="0.5" stroke-width="0.5"/>
<rect x="526.981" y="44.1736" width="59.1752" height="56.8056" stroke="#111111" stroke-opacity="0.5" stroke-width="0.5"/>
<rect x="586.258" y="44.1736" width="59.1752" height="56.8056" stroke="#111111" stroke-opacity="0.5" stroke-width="0.5"/>
<rect x="645.536" y="44.1736" width="59.1752" height="56.8056" stroke="#111111" stroke-opacity="0.5" stroke-width="0.5"/>
<rect x="704.813" y="44.1736" width="59.1752" height="56.8056" stroke="#111111" stroke-opacity="0.5" stroke-width="0.5"/>
<rect x="-6.51483" y="101.097" width="59.1752" height="56.8056" stroke="#111111" stroke-opacity="0.5" stroke-width="0.5"/>
<rect x="52.7627" y="101.097" width="59.1752" height="56.8056" stroke="#111111" stroke-opacity="0.5" stroke-width="0.5"/>
<rect x="112.04" y="101.097" width="59.1752" height="56.8056" stroke="#111111" stroke-opacity="0.5" stroke-width="0.5"/>
<rect x="171.317" y="101.097" width="59.1752" height="56.8056" stroke="#111111" stroke-opacity="0.5" stroke-width="0.5"/>
<rect x="230.594" y="101.097" width="59.1752" height="56.8056" stroke="#111111" stroke-opacity="0.5" stroke-width="0.5"/>
<rect x="289.872" y="101.097" width="59.1752" height="56.8056" stroke="#111111" stroke-opacity="0.5" stroke-width="0.5"/>
<rect x="349.149" y="101.097" width="59.1752" height="56.8056" stroke="#111111" stroke-opacity="0.5" stroke-width="0.5"/>
<rect x="408.426" y="101.097" width="59.1752" height="56.8056" stroke="#111111" stroke-opacity="0.5" stroke-width="0.5"/>
<rect x="467.704" y="101.097" width="59.1752" height="56.8056" stroke="#111111" stroke-opacity="0.5" stroke-width="0.5"/>
<rect x="526.981" y="101.097" width="59.1752" height="56.8056" stroke="#111111" stroke-opacity="0.5" stroke-width="0.5"/>
<rect x="586.258" y="101.097" width="59.1752" height="56.8056" stroke="#111111" stroke-opacity="0.5" stroke-width="0.5"/>
<rect x="645.536" y="101.097" width="59.1752" height="56.8056" stroke="#111111" stroke-opacity="0.5" stroke-width="0.5"/>
<rect x="704.813" y="101.097" width="59.1752" height="56.8056" stroke="#111111" stroke-opacity="0.5" stroke-width="0.5"/>
<rect x="-6.51483" y="158.021" width="59.1752" height="56.8056" stroke="#111111" stroke-opacity="0.5" stroke-width="0.5"/>
<rect x="52.7627" y="158.021" width="59.1752" height="56.8056" stroke="#111111" stroke-opacity="0.5" stroke-width="0.5"/>
<rect x="112.04" y="158.021" width="59.1752" height="56.8056" stroke="#111111" stroke-opacity="0.5" stroke-width="0.5"/>
<rect x="171.317" y="158.021" width="59.1752" height="56.8056" stroke="#111111" stroke-opacity="0.5" stroke-width="0.5"/>
<rect x="230.594" y="158.021" width="59.1752" height="56.8056" stroke="#111111" stroke-opacity="0.5" stroke-width="0.5"/>
<rect x="289.872" y="158.021" width="59.1752" height="56.8056" stroke="#111111" stroke-opacity="0.5" stroke-width="0.5"/>
<rect x="349.149" y="158.021" width="59.1752" height="56.8056" stroke="#111111" stroke-opacity="0.5" stroke-width="0.5"/>
<rect x="408.426" y="158.021" width="59.1752" height="56.8056" stroke="#111111" stroke-opacity="0.5" stroke-width="0.5"/>
<rect x="467.704" y="158.021" width="59.1752" height="56.8056" stroke="#111111" stroke-opacity="0.5" stroke-width="0.5"/>
<rect x="526.981" y="158.021" width="59.1752" height="56.8056" stroke="#111111" stroke-opacity="0.5" stroke-width="0.5"/>
<rect x="586.258" y="158.021" width="59.1752" height="56.8056" stroke="#111111" stroke-opacity="0.5" stroke-width="0.5"/>
<rect x="645.536" y="158.021" width="59.1752" height="56.8056" stroke="#111111" stroke-opacity="0.5" stroke-width="0.5"/>
<rect x="704.813" y="158.021" width="59.1752" height="56.8056" stroke="#111111" stroke-opacity="0.5" stroke-width="0.5"/>
<rect x="1.24995" y="215.25" width="51.5" height="42.5" stroke="#111111" stroke-opacity="0.5" stroke-width="0.5"/>
<rect x="52.7629" y="214.944" width="59.1752" height="56.8056" stroke="#111111" stroke-opacity="0.5" stroke-width="0.5"/>
<rect x="112.04" y="214.944" width="59.1752" height="56.8056" stroke="#111111" stroke-opacity="0.5" stroke-width="0.5"/>
<rect x="171.317" y="214.944" width="59.1752" height="56.8056" stroke="#111111" stroke-opacity="0.5" stroke-width="0.5"/>
<rect x="230.595" y="214.944" width="59.1752" height="56.8056" stroke="#111111" stroke-opacity="0.5" stroke-width="0.5"/>
<rect x="290.25" y="215.25" width="58.5" height="42.5" stroke="#111111" stroke-opacity="0.5" stroke-width="0.5"/>
<rect x="349.149" y="214.944" width="59.1752" height="56.8056" stroke="#111111" stroke-opacity="0.5" stroke-width="0.5"/>
<rect x="408.426" y="214.944" width="59.1752" height="56.8056" stroke="#111111" stroke-opacity="0.5" stroke-width="0.5"/>
<rect x="467.704" y="214.944" width="59.1752" height="56.8056" stroke="#111111" stroke-opacity="0.5" stroke-width="0.5"/>
<rect x="526.981" y="214.944" width="59.1752" height="56.8056" stroke="#111111" stroke-opacity="0.5" stroke-width="0.5"/>
<rect x="586.259" y="214.944" width="59.1752" height="56.8056" stroke="#111111" stroke-opacity="0.5" stroke-width="0.5"/>
<rect x="645.536" y="214.944" width="59.1752" height="56.8056" stroke="#111111" stroke-opacity="0.5" stroke-width="0.5"/>
<rect x="704.813" y="214.944" width="59.1752" height="56.8056" stroke="#111111" stroke-opacity="0.5" stroke-width="0.5"/>
</g>
<rect x="-23" width="771" height="285" fill="url(#paint0_linear_39_314)"/>
</g>
<rect x="0.5" y="0.5" width="1311" height="258" rx="5.5" stroke="#111111" stroke-opacity="0.05"/>
<defs>
<linearGradient id="paint0_linear_39_314" x1="640" y1="143" x2="386" y2="143" gradientUnits="userSpaceOnUse">
<stop stop-color="white"/>
<stop offset="1" stop-color="white" stop-opacity="0"/>
</linearGradient>
<clipPath id="clip0_39_314">
<rect width="1312" height="259" rx="6" fill="white"/>
</clipPath>
</defs>
</svg>
