<svg width="1440" height="389" viewBox="0 0 1440 389" fill="none" xmlns="http://www.w3.org/2000/svg">
<g clip-path="url(#clip0_1302_1069)">
<path d="M1437.04 -1V447.749H-4.70409V322.096C139.194 367.944 289.343 391.211 440.384 391.066C825.339 391.066 1175.61 242.292 1437.04 -1Z" fill="#EAF5FF" fill-opacity="0.07"/>
<path d="M140.471 257.216C140.471 257.216 150.364 255.787 150.343 249.091" stroke="#7B83FC" stroke-width="2" stroke-linecap="round" stroke-linejoin="round"/>
<path d="M160.225 257.186C160.225 257.186 150.333 255.787 150.313 249.091M138.469 267.351C138.469 267.351 150.263 265.632 150.253 257.586M162.168 267.301C162.168 267.301 150.293 265.632 150.283 257.586M138.469 278.355C138.469 278.355 150.274 276.635 150.253 268.6M162.198 278.304C162.198 278.304 150.313 276.635 150.303 268.6M140.311 288.498C140.311 288.498 150.324 287.04 150.324 280.223" stroke="#7B83FC" stroke-width="2" stroke-linecap="round" stroke-linejoin="round"/>
<path d="M160.416 288.459C160.416 288.459 150.334 287.04 150.323 280.223M140.331 299.952C140.331 299.952 150.343 298.493 150.343 291.677C150.363 298.493 160.435 299.913 160.435 299.913M150.274 250.04L150.394 313.855M201.636 322.68C201.636 322.68 211.528 321.25 211.517 314.554" stroke="#7B83FC" stroke-width="2" stroke-linecap="round" stroke-linejoin="round"/>
<path d="M221.419 322.649C221.419 322.649 211.527 321.25 211.517 314.554M199.673 332.813C199.673 332.813 211.477 331.094 211.457 323.048M223.372 332.813C223.372 332.813 211.498 331.144 211.477 323.099M199.693 343.807C199.693 343.807 211.498 342.088 211.477 334.053M223.392 343.807C223.392 343.807 211.517 342.138 211.497 334.102M201.546 353.961C201.546 353.961 211.558 352.503 211.558 345.686" stroke="#7B83FC" stroke-width="2" stroke-linecap="round" stroke-linejoin="round"/>
<path d="M221.569 353.922C221.569 353.922 211.557 352.503 211.557 345.686M211.468 315.503L210.536 367.755M1293.94 255.007C1293.94 255.007 1284.04 253.618 1284.03 246.922M1274.15 255.047C1274.15 255.047 1284.05 253.618 1284.02 246.922M1295.94 265.132C1295.94 265.132 1284.14 263.463 1284.11 255.417M1272.24 265.181C1272.24 265.181 1284.11 263.463 1284.1 255.417M1295.96 276.136C1295.96 276.136 1284.15 274.466 1284.13 266.421M1272.27 276.186C1272.27 276.186 1284.14 274.466 1284.11 266.421M1294.19 286.29C1294.19 286.29 1284.17 284.871 1284.17 278.054M1274.08 286.329C1274.08 286.329 1284.16 284.871 1284.1 278.054M1294.21 297.744C1294.21 297.744 1284.2 296.324 1284.2 289.508M1274.11 297.834C1274.11 297.834 1284.13 296.374 1284.13 289.558M1284.08 247.871L1284.2 311.676M1232.99 320.711C1232.99 320.711 1223.1 319.311 1223.08 312.615" stroke="#7B83FC" stroke-width="2" stroke-linecap="round" stroke-linejoin="round"/>
<path d="M1213.21 320.741C1213.21 320.741 1223.1 319.311 1223.08 312.615M1235 330.815C1235 330.815 1223.19 329.146 1223.17 321.1M1211.3 330.875C1211.3 330.875 1223.17 329.156 1223.15 321.11M1235.02 341.809C1235.02 341.809 1223.21 340.14 1223.19 332.104M1211.32 341.878C1211.32 341.878 1223.19 340.16 1223.17 332.124M1233.24 351.983C1233.24 351.983 1223.23 350.563 1223.23 343.747M1213.14 352.023C1213.14 352.023 1223.21 350.563 1223.2 343.747M1223.14 313.564L1224.27 365.815M150.684 335.682L156.331 341.299L150.704 346.936M1283.18 344.767L1277.54 339.15L1283.16 333.513" stroke="#7B83FC" stroke-width="2" stroke-linecap="round" stroke-linejoin="round"/>
<path d="M-4.98459 314.943L171.229 314.793C178.601 314.782 184.588 320.737 184.605 328.096C184.608 329.845 184.265 331.579 183.597 333.196C182.928 334.814 181.948 336.284 180.71 337.522C178.21 340.025 174.818 341.433 171.279 341.438H170.037M172.51 368.073L221.359 367.983C223.111 367.979 224.847 368.32 226.467 368.986C228.087 369.652 229.56 370.63 230.802 371.865C232.043 373.099 233.029 374.565 233.702 376.18C234.375 377.795 234.723 379.527 234.726 381.276C234.74 384.444 233.617 387.511 231.561 389.922M181.021 368.053L148.771 368.113C147.017 368.118 145.279 367.778 143.656 367.111C142.034 366.445 140.558 365.465 139.315 364.228C138.073 362.992 137.087 361.523 136.414 359.905C135.742 358.287 135.395 356.553 135.395 354.801C135.391 353.052 135.733 351.319 136.4 349.701C137.067 348.084 138.047 346.614 139.284 345.375C140.521 344.136 141.99 343.152 143.608 342.48C145.225 341.808 146.96 341.461 148.711 341.458H153.406M1438.71 312.565L1260.82 312.705C1257.28 312.712 1253.89 314.124 1251.39 316.628C1250.15 317.868 1249.17 319.338 1248.51 320.956C1247.84 322.574 1247.5 324.307 1247.5 326.057C1247.5 327.806 1247.85 329.538 1248.52 331.153C1249.2 332.768 1250.18 334.234 1251.42 335.468C1252.67 336.703 1254.14 337.681 1255.76 338.347C1257.38 339.013 1259.12 339.354 1260.87 339.35H1262.12M1259.83 365.995L1210.98 366.085C1209.22 366.087 1207.49 366.435 1205.87 367.108C1204.25 367.78 1202.78 368.765 1201.54 370.005C1200.31 371.245 1199.33 372.716 1198.66 374.335C1198 375.953 1197.65 377.687 1197.66 379.437C1197.66 382.935 1199.05 386.29 1201.52 388.772M1251.25 366.005L1283.51 365.945C1287.05 365.937 1290.44 364.526 1292.94 362.021C1294.18 360.782 1295.16 359.311 1295.83 357.693C1296.49 356.076 1296.83 354.342 1296.83 352.592C1296.83 350.843 1296.48 349.111 1295.8 347.496C1295.13 345.881 1294.14 344.415 1292.9 343.181C1290.39 340.688 1286.99 339.292 1283.45 339.3H1278.76M786.373 388.543L716.809 293.995M716.809 293.995L647.305 388.802M716.809 293.995L716.999 389.522M716.899 339.75L680.795 388.012M675.138 350.514L654.964 323.469M654.964 323.469L606.015 388.862M654.964 323.469L655.074 377.978M654.533 353.542L627.04 389.702M826.721 387.563L778.774 323.229M778.774 323.229L758.709 350.484M778.774 323.229L778.873 377.738M778.343 353.302L769.573 365.395M701.971 358.059L670.252 358.119M763.105 357.949L717.449 358.029M811.102 367.893L780.145 367.953M642.409 368.993L621.744 368.723" stroke="#7B83FC" stroke-width="2" stroke-linecap="round" stroke-linejoin="round"/>
<g opacity="0.25">
<path d="M906.568 350.804C906.568 350.804 898.238 349.634 898.218 343.978" stroke="#7B83FC" stroke-width="2" stroke-linecap="round" stroke-linejoin="round"/>
<path d="M889.898 350.804C889.898 350.804 898.228 349.604 898.218 343.947M908.26 359.329C908.26 359.329 898.308 357.919 898.248 351.143" stroke="#7B83FC" stroke-width="2" stroke-linecap="round" stroke-linejoin="round"/>
<path d="M888.286 359.369C888.286 359.369 898.299 357.92 898.299 351.144M908.27 368.604C908.27 368.604 898.328 367.195 898.318 360.419" stroke="#7B83FC" stroke-width="2" stroke-linecap="round" stroke-linejoin="round"/>
<path d="M888.306 368.644C888.306 368.644 898.318 367.195 898.318 360.419M906.778 377.159C906.778 377.159 898.348 375.97 898.328 370.223M889.848 377.189C889.848 377.189 898.328 375.97 898.318 370.193M898.268 344.787L898.348 388.702M999.631 354.172C999.631 354.172 992.512 353.173 992.502 348.345C992.512 353.203 985.393 354.202 985.393 354.202M1001.07 361.448C1001.07 361.448 992.572 360.248 992.562 354.451M984.022 361.478C984.022 361.478 992.562 360.248 992.552 354.481M1001.08 369.364C1001.08 369.364 992.593 368.164 992.582 362.367M984.042 369.403C984.042 369.403 992.572 368.164 992.562 362.407M999.811 376.669C999.811 376.669 992.602 375.67 992.592 370.743M985.354 376.699C985.354 376.699 992.592 375.65 992.582 370.702M992.542 349.035L992.612 386.524M970.996 332.074C970.996 332.074 961.074 330.685 961.054 323.959" stroke="#7B83FC" stroke-width="2" stroke-linecap="round" stroke-linejoin="round"/>
<path d="M951.152 332.114C951.152 332.114 961.075 330.685 961.054 323.959M972.999 342.218C972.999 342.218 961.164 340.549 961.144 332.484M949.24 342.269C949.24 342.269 961.144 340.549 961.124 332.484M973.018 353.252C973.018 353.252 961.184 351.583 961.164 343.517M949.26 353.302C949.26 353.302 961.164 351.583 961.144 343.518M971.236 363.437C971.236 363.437 961.224 362.017 961.224 355.171M951.091 363.477C951.091 363.477 961.184 362.017 961.174 355.171M971.266 374.92C971.266 374.92 961.254 373.501 961.254 366.655M951.112 374.95C951.112 374.95 961.204 373.501 961.195 366.655M961.114 324.918L961.234 388.892M938.566 286.749C938.566 286.749 928.645 285.36 928.636 278.634M918.733 286.839C918.733 286.839 928.645 285.41 928.635 278.684M940.569 296.894C940.569 296.894 928.735 295.225 928.725 287.159M916.821 296.944C916.821 296.944 928.715 295.225 928.705 287.159M940.589 307.928C940.589 307.928 928.755 306.258 928.745 298.193M916.84 307.977C916.84 307.977 928.735 306.258 928.725 298.193M938.817 318.112C938.817 318.112 928.804 316.693 928.804 309.846M918.663 318.152C918.663 318.152 928.755 316.693 928.745 309.846M938.837 329.596C938.837 329.596 928.825 328.166 928.825 321.33M918.693 329.626C918.693 329.626 928.785 328.166 928.765 321.33M938.857 340.889C938.857 340.889 928.845 339.47 928.845 332.624M918.713 340.929C918.713 340.929 928.805 339.47 928.786 332.624M938.887 353.572C938.887 353.572 928.875 352.153 928.875 345.316M918.733 353.612C918.733 353.612 928.825 352.153 928.815 345.317M938.908 366.254C938.908 366.254 928.895 364.836 928.895 357.999M918.763 366.295C918.763 366.295 928.855 364.836 928.835 357.999M928.685 279.593L928.895 388.953M447.182 355.231C447.182 355.231 440.064 354.232 440.054 349.404C440.064 354.251 432.946 355.251 432.946 355.251M448.614 362.507C448.614 362.507 440.124 361.308 440.114 355.511M431.574 362.537C431.574 362.537 440.114 361.308 440.104 355.541M448.634 370.423C448.634 370.423 440.144 369.223 440.134 363.426M431.584 370.463C431.584 370.463 440.124 369.223 440.114 363.467M447.363 377.729C447.363 377.729 440.154 376.729 440.144 371.802M432.895 377.789C432.895 377.789 440.144 376.74 440.134 371.792M440.084 350.084L440.164 389.892M522.654 351.533C522.654 351.533 530.984 350.334 530.974 344.687C530.984 350.334 539.324 351.503 539.324 351.503M521.002 360.069C521.002 360.069 530.944 358.63 530.934 351.853M540.956 360.039C540.956 360.039 530.944 358.63 530.944 351.853M521.022 369.343C521.022 369.343 530.964 367.904 530.954 361.128" stroke="#7B83FC" stroke-width="2" stroke-linecap="round" stroke-linejoin="round"/>
<path d="M540.956 369.313C540.956 369.313 530.944 367.904 530.944 361.128M522.544 377.899C522.544 377.899 530.984 376.669 530.964 370.902M539.484 377.869C539.484 377.869 530.994 376.669 530.984 370.923M530.934 345.487L531.024 389.402M458.166 333.064C458.166 333.064 468.078 331.624 468.068 324.908" stroke="#7B83FC" stroke-width="2" stroke-linecap="round" stroke-linejoin="round"/>
<path d="M478 333.024C478 333.024 468.077 331.624 468.069 324.908M456.193 343.217C456.193 343.217 468.028 341.488 468.007 333.433M479.952 343.168C479.952 343.168 468.048 341.488 468.028 333.433M456.223 354.241C456.223 354.241 468.048 352.522 468.028 344.467M479.972 354.202C479.972 354.202 468.068 352.522 468.047 344.467M458.035 364.416C458.035 364.416 468.048 362.956 468.048 356.12M478.18 364.376C478.18 364.376 468.088 362.956 468.077 356.12M458.056 375.899C458.056 375.899 468.068 374.44 468.068 367.604M478.21 375.859C478.21 375.859 468.108 374.44 468.098 367.604M468.018 325.857L468.138 389.832M490.415 287.609C490.415 287.609 500.326 286.18 500.317 279.464C500.326 286.181 510.249 287.569 510.249 287.569M488.452 297.763C488.452 297.763 500.277 296.044 500.257 287.979M512.201 297.723C512.201 297.723 500.296 296.044 500.276 287.979M488.473 308.827C488.473 308.827 500.296 307.108 500.287 299.043M512.221 308.747C512.221 308.747 500.317 307.078 500.296 299.012M490.285 318.972C490.285 318.972 500.297 317.512 500.297 310.666M510.439 318.931C510.439 318.931 500.337 317.512 500.326 310.666M490.305 330.455C490.305 330.455 500.317 328.995 500.317 322.15M510.459 330.414C510.459 330.414 500.356 328.995 500.347 322.15M490.324 341.749C490.324 341.749 500.337 340.289 500.337 333.453M510.479 341.709C510.479 341.709 500.377 340.289 500.367 333.453M490.354 354.432C490.354 354.432 500.367 352.972 500.367 346.136M510.499 354.391C510.499 354.391 500.407 352.972 500.387 346.135M490.375 367.114C490.375 367.114 500.387 365.655 500.387 358.819M510.529 367.075C510.529 367.075 500.427 365.655 500.417 358.819M500.266 280.413L500.477 389.771" stroke="#7B83FC" stroke-width="2" stroke-linecap="round" stroke-linejoin="round"/>
</g>
<g opacity="0.25">
<path d="M1439.71 413.028L-6.65643 415.327M1150.04 388.781C1147.83 388.718 1145.63 389.249 1143.69 390.32C1141.75 391.39 1140.13 392.96 1139.01 394.867C1137.88 396.773 1137.28 398.946 1137.28 401.16C1137.28 403.374 1137.88 405.547 1139.01 407.453C1140.13 409.359 1141.75 410.93 1143.69 412C1145.63 413.07 1147.83 413.601 1150.04 413.538M1107.49 413.427C1098.64 413.445 1091.49 420.617 1091.5 429.449C1091.52 438.281 1098.7 445.426 1107.55 445.41M282.453 390.261C284.669 390.194 286.862 390.72 288.805 391.787C290.748 392.853 292.369 394.42 293.5 396.324C294.631 398.228 295.23 400.4 295.235 402.613C295.239 404.827 294.649 407.001 293.527 408.91C292.403 410.819 290.788 412.392 288.849 413.466C286.91 414.54 284.719 415.076 282.503 415.017M325.696 414.767C328.438 414.761 331.134 415.477 333.513 416.842C335.891 418.206 337.868 420.172 339.245 422.542C340.621 424.911 341.349 427.6 341.354 430.338C341.359 433.077 340.642 435.769 339.275 438.143C337.907 440.518 335.938 442.491 333.565 443.865C331.192 445.239 328.498 445.965 325.756 445.97" stroke="#7B83FC" stroke-width="2" stroke-linecap="round" stroke-linejoin="round"/>
</g>
<path opacity="0.25" fill-rule="evenodd" clip-rule="evenodd" d="M1058.35 158.521C1057.58 158.556 1056.82 158.37 1056.15 157.984C1055.49 157.597 1054.95 157.027 1054.6 156.342C1054.26 155.683 1054.06 154.961 1054.02 154.223C1054.02 153.878 1053.88 153.547 1053.64 153.304C1053.39 153.06 1053.06 152.923 1052.72 152.923C1052.37 152.923 1052.04 153.06 1051.79 153.304C1051.55 153.547 1051.41 153.878 1051.41 154.223C1051.42 154.791 1051.31 155.355 1051.09 155.881C1050.88 156.407 1050.56 156.885 1050.16 157.286C1049.75 157.688 1049.28 158.006 1048.75 158.222C1048.22 158.437 1047.66 158.545 1047.09 158.541C1046.91 158.535 1046.74 158.564 1046.58 158.627C1046.41 158.689 1046.27 158.784 1046.14 158.905C1046.01 159.027 1045.91 159.172 1045.85 159.332C1045.78 159.493 1045.74 159.665 1045.74 159.84C1045.74 160.014 1045.78 160.187 1045.85 160.347C1045.91 160.508 1046.01 160.653 1046.14 160.774C1046.27 160.896 1046.41 160.99 1046.58 161.053C1046.74 161.116 1046.91 161.145 1047.09 161.139C1047.84 161.114 1048.59 161.299 1049.25 161.673C1049.91 162.047 1050.45 162.595 1050.81 163.258C1051.17 163.936 1051.38 164.682 1051.42 165.447C1051.44 166.154 1052.02 166.72 1052.72 166.726C1053.07 166.724 1053.39 166.587 1053.63 166.346C1053.88 166.105 1054.01 165.778 1054.02 165.437C1054.01 164.869 1054.12 164.306 1054.34 163.78C1054.56 163.255 1054.87 162.778 1055.28 162.376C1055.68 161.975 1056.16 161.657 1056.68 161.441C1057.21 161.225 1057.77 161.116 1058.34 161.119C1058.68 161.103 1058.99 160.96 1059.22 160.718C1059.45 160.476 1059.58 160.154 1059.58 159.82C1059.58 159.487 1059.45 159.169 1059.22 158.927C1059 158.686 1058.68 158.541 1058.35 158.521Z" stroke="#7B83FC" stroke-width="2" stroke-linecap="round" stroke-linejoin="round"/>
<path fill-rule="evenodd" clip-rule="evenodd" d="M764.757 231.231C763.964 231.264 763.177 231.069 762.491 230.671C761.804 230.273 761.246 229.686 760.882 228.982C760.534 228.301 760.33 227.556 760.282 226.793C760.282 226.438 760.14 226.097 759.889 225.846C759.637 225.594 759.296 225.453 758.94 225.453C758.584 225.453 758.243 225.594 757.991 225.846C757.74 226.097 757.598 226.438 757.598 226.793C757.601 227.38 757.488 227.961 757.264 228.503C757.041 229.045 756.712 229.538 756.297 229.953C755.881 230.367 755.388 230.695 754.845 230.918C754.302 231.141 753.72 231.254 753.133 231.251C752.796 231.28 752.483 231.435 752.255 231.684C752.027 231.932 751.901 232.257 751.901 232.595C751.901 232.932 752.027 233.257 752.255 233.506C752.483 233.755 752.796 233.909 753.133 233.939C753.912 233.908 754.685 234.094 755.364 234.477C756.043 234.86 756.601 235.425 756.977 236.108C757.345 236.811 757.56 237.584 757.608 238.376C757.63 239.103 758.221 239.686 758.95 239.695C759.303 239.693 759.641 239.552 759.892 239.304C760.142 239.056 760.286 238.719 760.291 238.366C760.287 237.78 760.4 237.199 760.622 236.657C760.844 236.115 761.172 235.622 761.586 235.208C762.001 234.793 762.494 234.465 763.036 234.242C763.578 234.019 764.16 233.906 764.746 233.909C764.925 233.913 765.103 233.881 765.269 233.816C765.436 233.751 765.587 233.653 765.715 233.528C765.843 233.403 765.945 233.254 766.014 233.09C766.083 232.925 766.119 232.748 766.119 232.57C766.119 232.391 766.083 232.214 766.014 232.05C765.945 231.885 765.843 231.736 765.715 231.611C765.587 231.487 765.436 231.389 765.269 231.323C765.103 231.258 764.925 231.226 764.746 231.231H764.757ZM953.545 211.961C952.985 211.978 952.431 211.839 951.946 211.558C951.462 211.277 951.065 210.866 950.802 210.372C950.558 209.89 950.415 209.363 950.381 208.823C950.315 208.623 950.188 208.449 950.017 208.326C949.846 208.202 949.641 208.136 949.43 208.136C949.219 208.136 949.014 208.202 948.843 208.326C948.673 208.449 948.545 208.623 948.479 208.823C948.483 209.237 948.405 209.648 948.249 210.031C948.092 210.414 947.861 210.763 947.568 211.056C947.276 211.349 946.927 211.581 946.544 211.738C946.161 211.895 945.75 211.974 945.335 211.971C945.135 212.037 944.961 212.164 944.837 212.334C944.713 212.505 944.647 212.71 944.647 212.921C944.647 213.131 944.713 213.336 944.837 213.507C944.961 213.677 945.135 213.804 945.335 213.87C945.885 213.846 946.431 213.976 946.911 214.247C947.391 214.517 947.785 214.916 948.049 215.399C948.311 215.894 948.465 216.439 948.499 216.999C948.536 217.523 948.973 217.929 949.5 217.928C949.754 217.928 949.998 217.833 950.184 217.66C950.37 217.488 950.483 217.251 950.501 216.999C950.497 216.585 950.575 216.174 950.732 215.791C950.888 215.407 951.119 215.059 951.412 214.766C951.705 214.472 952.053 214.24 952.436 214.083C952.82 213.926 953.231 213.847 953.645 213.85C953.878 213.825 954.094 213.714 954.25 213.54C954.406 213.366 954.493 213.14 954.493 212.906C954.493 212.672 954.406 212.446 954.25 212.271C954.094 212.097 953.878 211.987 953.645 211.961H953.545Z" stroke="#7B83FC" stroke-width="2" stroke-linecap="round" stroke-linejoin="round"/>
<path d="M265.678 181.297C266.056 179.809 265.155 178.297 263.665 177.919C262.175 177.542 260.661 178.441 260.283 179.929C259.905 181.416 260.806 182.928 262.296 183.306C263.786 183.684 265.3 182.784 265.678 181.297Z" stroke="#7B83FC" stroke-width="2" stroke-linecap="round" stroke-linejoin="round"/>
<path d="M1135.97 270.064C1136.34 268.577 1135.44 267.065 1133.95 266.687C1132.46 266.309 1130.95 267.209 1130.57 268.696C1130.19 270.184 1131.09 271.696 1132.58 272.074C1134.07 272.451 1135.59 271.552 1135.97 270.064Z" stroke="#7B83FC" stroke-width="2" stroke-linecap="round" stroke-linejoin="round"/>
<path d="M1176.56 148.96C1176.94 147.472 1176.04 145.96 1174.55 145.582C1173.06 145.205 1171.55 146.104 1171.17 147.592C1170.79 149.079 1171.69 150.591 1173.18 150.969C1174.67 151.347 1176.19 150.447 1176.56 148.96Z" stroke="#7B83FC" stroke-width="2" stroke-linecap="round" stroke-linejoin="round"/>
<path opacity="0.25" fill-rule="evenodd" clip-rule="evenodd" d="M584.258 288.838C585.053 288.87 585.84 288.676 586.528 288.278C587.216 287.88 587.776 287.294 588.143 286.589C588.491 285.912 588.692 285.17 588.733 284.41C588.762 284.073 588.916 283.759 589.166 283.531C589.415 283.302 589.741 283.175 590.08 283.175C590.419 283.175 590.745 283.302 590.994 283.531C591.244 283.759 591.398 284.073 591.427 284.41C591.422 284.997 591.535 285.578 591.757 286.121C591.979 286.664 592.307 287.157 592.721 287.572C593.135 287.988 593.628 288.317 594.171 288.541C594.713 288.765 595.295 288.879 595.882 288.878C596.237 288.878 596.578 289.019 596.83 289.27C597.081 289.521 597.223 289.862 597.223 290.217C597.223 290.572 597.081 290.913 596.83 291.164C596.578 291.415 596.237 291.557 595.882 291.557C595.101 291.527 594.328 291.715 593.649 292.099C592.97 292.484 592.412 293.051 592.038 293.735C591.668 294.438 591.453 295.211 591.407 296.004C591.397 296.355 591.249 296.688 590.997 296.932C590.744 297.177 590.407 297.314 590.055 297.313C589.703 297.311 589.366 297.17 589.117 296.921C588.868 296.672 588.726 296.336 588.724 295.984C588.727 295.399 588.613 294.819 588.39 294.278C588.167 293.737 587.839 293.245 587.425 292.832C587.011 292.418 586.519 292.091 585.977 291.868C585.435 291.646 584.854 291.533 584.269 291.536C583.931 291.508 583.617 291.354 583.388 291.105C583.16 290.856 583.033 290.53 583.033 290.192C583.033 289.854 583.16 289.528 583.388 289.279C583.617 289.03 583.931 288.876 584.269 288.848L584.258 288.838ZM462.34 208.063C463.008 208.089 463.669 207.926 464.247 207.592C464.824 207.257 465.295 206.766 465.604 206.174C465.897 205.599 466.068 204.97 466.105 204.325C466.131 204.042 466.261 203.778 466.472 203.586C466.682 203.394 466.957 203.287 467.242 203.287C467.527 203.287 467.801 203.394 468.012 203.586C468.222 203.778 468.353 204.042 468.378 204.325C468.372 204.82 468.466 205.31 468.652 205.768C468.839 206.226 469.115 206.642 469.465 206.992C469.814 207.342 470.231 207.619 470.689 207.806C471.147 207.994 471.637 208.088 472.132 208.083C472.283 208.079 472.434 208.106 472.574 208.161C472.715 208.216 472.843 208.298 472.951 208.404C473.059 208.509 473.145 208.635 473.204 208.774C473.262 208.913 473.293 209.062 473.293 209.213C473.293 209.363 473.262 209.513 473.204 209.652C473.145 209.791 473.059 209.916 472.951 210.022C472.843 210.127 472.715 210.21 472.574 210.265C472.434 210.32 472.283 210.346 472.132 210.342C471.477 210.317 470.827 210.475 470.255 210.798C469.684 211.121 469.214 211.596 468.898 212.171C468.586 212.761 468.405 213.412 468.368 214.08C468.36 214.377 468.236 214.659 468.023 214.866C467.81 215.073 467.524 215.189 467.227 215.188C466.93 215.188 466.645 215.071 466.434 214.861C466.224 214.651 466.106 214.367 466.105 214.07C466.106 213.576 466.008 213.088 465.819 212.632C465.63 212.177 465.352 211.763 465.002 211.415C464.653 211.066 464.237 210.791 463.78 210.603C463.324 210.415 462.834 210.32 462.34 210.322C462.189 210.326 462.039 210.299 461.899 210.244C461.758 210.189 461.63 210.107 461.522 210.001C461.414 209.896 461.328 209.77 461.269 209.631C461.211 209.492 461.18 209.343 461.18 209.192C461.18 209.042 461.211 208.892 461.269 208.753C461.328 208.614 461.414 208.489 461.522 208.383C461.63 208.278 461.758 208.196 461.899 208.141C462.039 208.086 462.189 208.059 462.34 208.063Z" stroke="#7B83FC" stroke-width="2" stroke-linecap="round" stroke-linejoin="round"/>
<path d="M1439.66 388.412L-6.70659 390.701M1308.88 130.676C1311.68 125.257 1313.26 119.296 1313.52 113.206C1313.78 107.117 1312.72 101.043 1310.4 95.405M1229.79 105.38C1229.51 107.367 1229.37 109.37 1229.37 111.376C1229.36 129.679 1241.22 145.882 1258.69 151.44C1276.16 156.997 1295.23 150.633 1305.83 135.703M1307.64 89.8687C1299.08 75.5461 1282.84 67.6305 1266.26 69.6914C1249.68 71.7524 1235.89 83.4011 1231.1 99.3838M57.6014 221.575C58.1667 221.598 58.7269 221.461 59.2175 221.18C59.7082 220.899 60.1094 220.485 60.3749 219.986C60.6194 219.507 60.7624 218.983 60.7949 218.447C60.8187 218.213 60.9287 217.996 61.1035 217.838C61.2783 217.68 61.5055 217.593 61.741 217.593C61.9766 217.593 62.2038 217.68 62.3786 217.838C62.5534 217.996 62.6633 218.213 62.6872 218.447C62.6858 218.861 62.7664 219.271 62.9244 219.654C63.0825 220.036 63.3148 220.384 63.6079 220.677C63.9011 220.969 64.2493 221.201 64.6326 221.359C65.0158 221.516 65.4265 221.597 65.8409 221.595C66.0746 221.62 66.2908 221.73 66.448 221.904C66.6052 222.079 66.6921 222.305 66.6921 222.54C66.6921 222.774 66.6052 223.001 66.448 223.175C66.2908 223.349 66.0746 223.46 65.8409 223.484C65.291 223.468 64.7472 223.603 64.2689 223.874C63.7905 224.146 63.3959 224.543 63.1282 225.023C62.8708 225.52 62.7205 226.064 62.6872 226.623C62.6504 227.147 62.2132 227.553 61.6859 227.551C61.4411 227.537 61.21 227.434 61.0365 227.261C60.863 227.087 60.7591 226.857 60.7447 226.612C60.7488 226.199 60.6703 225.789 60.5138 225.406C60.3572 225.023 60.1258 224.676 59.8331 224.383C59.5404 224.091 59.1922 223.86 58.809 223.704C58.4258 223.548 58.0153 223.469 57.6014 223.474C57.4014 223.408 57.2273 223.281 57.1039 223.11C56.9805 222.94 56.914 222.735 56.914 222.525C56.914 222.314 56.9805 222.109 57.1039 221.939C57.2273 221.768 57.4014 221.641 57.6014 221.575ZM1235.97 51.97L1237.68 56.6073C1237.81 56.9384 1238.07 57.1999 1238.4 57.3265L1243.05 59.0361C1243.28 59.1242 1243.48 59.2803 1243.62 59.4838C1243.76 59.6872 1243.83 59.9285 1243.83 60.1755C1243.83 60.4226 1243.76 60.6639 1243.62 60.8673C1243.48 61.0708 1243.28 61.2269 1243.05 61.315L1238.4 63.0231C1238.07 63.1527 1237.81 63.4134 1237.68 63.7431L1235.97 68.3804C1235.88 68.6114 1235.72 68.8102 1235.52 68.9504C1235.31 69.0907 1235.07 69.1658 1234.83 69.1658C1234.58 69.1658 1234.34 69.0907 1234.13 68.9504C1233.93 68.8102 1233.77 68.6114 1233.68 68.3804L1231.97 63.7431C1231.91 63.58 1231.81 63.432 1231.69 63.3082C1231.56 63.1844 1231.41 63.0876 1231.25 63.0239L1226.61 61.315C1226.37 61.2269 1226.18 61.0708 1226.04 60.8673C1225.89 60.6639 1225.82 60.4226 1225.82 60.1755C1225.82 59.9285 1225.89 59.6872 1226.04 59.4838C1226.18 59.2803 1226.37 59.1242 1226.61 59.0361L1231.25 57.3272C1231.58 57.1999 1231.85 56.9384 1231.97 56.608L1233.68 51.97C1233.77 51.739 1233.93 51.5402 1234.13 51.3999C1234.34 51.2597 1234.58 51.1846 1234.83 51.1846C1235.07 51.1846 1235.31 51.2597 1235.52 51.3999C1235.72 51.5402 1235.88 51.739 1235.97 51.97Z" stroke="#7B83FC" stroke-width="2" stroke-linecap="round" stroke-linejoin="round"/>
<path d="M1308.95 170.734C1311.78 170.734 1314.08 168.438 1314.08 165.607C1314.08 162.775 1311.78 160.479 1308.95 160.479C1306.11 160.479 1303.81 162.775 1303.81 165.607C1303.81 168.438 1306.11 170.734 1308.95 170.734Z" stroke="#7B83FC" stroke-width="2" stroke-linecap="round" stroke-linejoin="round"/>
<path d="M1274.01 92.618C1275.4 92.618 1276.52 91.4994 1276.52 90.1196C1276.52 88.7397 1275.4 87.6211 1274.01 87.6211C1272.63 87.6211 1271.51 88.7397 1271.51 90.1196C1271.51 91.4994 1272.63 92.618 1274.01 92.618Z" fill="#7B83FC"/>
<path d="M1240.34 105.161H1225.51M1219.82 105.161H1216.29M1312.27 90.5293H1300.7M1328.29 90.5293H1323.28" stroke="#7B83FC" stroke-width="2" stroke-linecap="round" stroke-linejoin="round"/>
<path d="M1317.86 91.5281C1318.41 91.5281 1318.86 91.0806 1318.86 90.5287C1318.86 89.9767 1318.41 89.5293 1317.86 89.5293C1317.3 89.5293 1316.85 89.9767 1316.85 90.5287C1316.85 91.0806 1317.3 91.5281 1317.86 91.5281Z" fill="#7B83FC"/>
<path d="M1316.67 135.414H1301.04" stroke="#7B83FC" stroke-width="2" stroke-linecap="round" stroke-linejoin="round"/>
<path d="M1296.03 136.413C1296.58 136.413 1297.03 135.965 1297.03 135.413C1297.03 134.862 1296.58 134.414 1296.03 134.414C1295.48 134.414 1295.03 134.862 1295.03 135.413C1295.03 135.965 1295.48 136.413 1296.03 136.413Z" fill="#7B83FC"/>
<path d="M1256.87 123.86V115.895M1252.88 119.882H1260.88" stroke="#7B83FC" stroke-width="2" stroke-linecap="round" stroke-linejoin="round"/>
</g>
<defs>
<clipPath id="clip0_1302_1069">
<rect width="1440" height="448" fill="white"/>
</clipPath>
</defs>
</svg>
